<?xml version="1.0" standalone="no"?>
<!DOCTYPE svg PUBLIC "-//W3C//DTD SVG 20010904//EN"
 "http://www.w3.org/TR/2001/REC-SVG-20010904/DTD/svg10.dtd">
<svg version="1.0" xmlns="http://www.w3.org/2000/svg"
 width="1280.000000pt" height="707.000000pt" viewBox="0 0 1280.000000 707.000000"
 preserveAspectRatio="xMidYMid meet">
<metadata>
Created by potrace 1.15, written by Peter Selinger 2001-2017
</metadata>
<g transform="translate(0.000000,707.000000) scale(0.100000,-0.100000)"
fill="#000000" stroke="none">
<path d="M11000 7064 c-229 -15 -457 -50 -588 -90 -380 -115 -715 -385 -867
-698 -62 -127 -86 -227 -86 -351 0 -178 43 -284 230 -569 125 -190 162 -257
191 -342 l18 -52 -61 -5 c-34 -3 -327 -10 -652 -16 -324 -6 -680 -18 -791 -26
-110 -8 -234 -15 -275 -15 -142 0 -334 -40 -514 -107 -38 -14 -155 -62 -260
-106 -331 -138 -431 -169 -658 -198 -188 -24 -251 -45 -321 -109 l-53 -47 -96
-6 c-79 -5 -117 -14 -204 -47 -117 -44 -154 -48 -253 -24 -36 8 -488 156
-1005 329 -1010 338 -2008 650 -2474 775 -875 234 -1533 262 -2096 89 -58 -18
-105 -36 -105 -41 0 -19 47 -70 90 -98 25 -16 104 -48 175 -71 162 -51 2049
-904 3060 -1382 198 -93 407 -192 465 -219 l105 -50 -170 -54 c-311 -100 -764
-240 -1365 -424 -1212 -370 -2051 -645 -2228 -731 -95 -46 -202 -128 -202
-155 0 -11 171 -9 530 6 683 28 1170 73 2460 226 1040 123 1170 142 1745 259
563 114 781 145 1033 145 115 0 122 -1 122 -20 0 -32 34 -57 107 -80 37 -11
169 -69 293 -129 124 -60 240 -114 258 -120 19 -6 84 -15 145 -21 141 -14 184
-26 387 -110 401 -167 822 -255 1383 -291 263 -17 965 -6 1097 16 119 21 209
16 279 -15 l53 -23 -6 -54 c-8 -65 -47 -147 -110 -228 -128 -165 -169 -244
-208 -401 -33 -132 -30 -341 6 -479 33 -127 109 -282 187 -380 304 -383 1259
-621 1944 -484 201 40 504 158 612 237 23 17 66 66 94 109 29 43 99 123 155
178 114 112 150 175 195 335 33 122 34 295 0 397 -79 243 -300 495 -705 808
-235 180 -486 281 -881 354 -368 68 -666 86 -1611 101 -982 15 -1235 36 -1491
124 -84 28 -224 100 -246 124 -8 9 -22 42 -31 72 -33 114 -90 188 -313 403
-103 99 -169 187 -160 210 8 19 183 225 254 299 35 37 92 92 127 122 49 43 64
64 74 100 22 85 55 141 121 206 105 104 261 169 552 229 261 54 450 72 1014
96 687 29 1066 68 1508 155 670 131 1138 330 1511 641 169 141 242 252 277
422 21 105 23 168 8 270 -33 222 -147 442 -286 552 -32 25 -103 71 -158 102
-177 99 -217 126 -263 170 -30 28 -49 40 -55 34 -7 -7 -21 -1 -40 15 -75 63
-209 111 -392 139 -96 15 -465 27 -585 19z m375 -259 c279 -42 499 -137 629
-273 213 -221 293 -592 191 -885 -38 -108 -80 -170 -185 -271 -132 -126 -258
-218 -359 -262 -393 -169 -965 -125 -1324 100 -111 70 -167 117 -233 195 -207
248 -223 584 -43 931 134 258 394 408 809 465 133 18 393 18 515 0z m-80
-4690 c215 -15 412 -106 655 -302 196 -158 237 -242 247 -505 4 -114 2 -167
-11 -240 -21 -112 -64 -227 -91 -242 -11 -6 -51 -40 -89 -75 -164 -151 -393
-264 -651 -321 -523 -114 -1096 45 -1424 395 -97 105 -132 178 -139 293 -3 68
0 106 17 172 42 171 179 400 317 531 165 156 502 272 864 299 102 7 141 6 305
-5z"/>
</g>
</svg>
